<svg width="25" height="26" viewBox="0 0 25 26" fill="none" xmlns="http://www.w3.org/2000/svg">
<path d="M14.6916 25H9.63893M19.7442 8.57895C19.7442 6.56889 18.9457 4.64115 17.5244 3.21982C16.103 1.79849 14.1753 1 12.1652 1C10.1552 1 8.22745 1.79849 6.80612 3.21982C5.38479 4.64115 4.5863 6.56889 4.5863 8.57895C4.5863 12.4823 3.60163 15.1549 2.50166 16.9226C1.57382 18.4137 1.10991 19.1593 1.12692 19.3673C1.14575 19.5976 1.19454 19.6854 1.38012 19.823C1.54772 19.9474 2.30325 19.9474 3.81432 19.9474H20.5162C22.0272 19.9474 22.7828 19.9474 22.9504 19.823C23.1359 19.6854 23.1847 19.5976 23.2036 19.3673C23.2206 19.1593 22.7567 18.4137 21.8288 16.9226C20.7289 15.1549 19.7442 12.4823 19.7442 8.57895Z" stroke="#444444" stroke-width="2" stroke-linecap="round" stroke-linejoin="round"/>
</svg>
